<svg xmlns="http://www.w3.org/2000/svg" xmlns:xlink="http://www.w3.org/1999/xlink" version="1.1" id="Layer_1" x="0px" y="0px" width="100px" height="100px" viewBox="0 0 100 100" enable-background="new 0 0 100 100" xml:space="preserve">
<path fill-rule="evenodd" clip-rule="evenodd" d="M75.454,58.459c-9.129,0-16.53,7.4-16.53,16.528c0,9.13,7.401,16.53,16.53,16.53  c9.128,0,16.529-7.4,16.529-16.53C91.983,65.859,84.582,58.459,75.454,58.459z M86.49,77.748h-8.277v8.276h-5.518v-8.276h-8.276  v-5.52h8.276v-8.276h5.518v8.276h8.277V77.748z"/>
<path fill-rule="evenodd" clip-rule="evenodd" d="M66.573,6.017H23.036c-6.095,0-11.035,4.94-11.035,11.036v66.213  c0,6.094,4.94,11.035,11.035,11.035h41.741c-6.792-3.764-11.394-10.997-11.394-19.313c0-12.188,9.881-22.07,22.07-22.07  c5.223,0,10.015,1.824,13.795,4.857V27.868L66.573,6.017z M83.731,30.847H64.419V11.535h2.759v16.553h16.554V30.847z"/>
</svg>