<svg xmlns="http://www.w3.org/2000/svg" xmlns:xlink="http://www.w3.org/1999/xlink" version="1.1" id="Layer_1" x="0px" y="0px" width="100px" height="100px" viewBox="0 0 100 100" enable-background="new 0 0 100 100" xml:space="preserve">
<g id="Captions">
	<rect x="-192" width="185" height="99"/>
	<rect y="-36" width="100" height="30"/>
	<text transform="matrix(1 0 0 1 66 -19.5)" fill="#000000" font-family="'Helvetica'" font-size="2.4">http://thenounproject.com</text>
	<text transform="matrix(1 0 0 1 7.166 -24.5)" fill="#000000" font-family="'Helvetica-Bold'" font-size="6.1578">The Noun Project</text>
	<text transform="matrix(1 0 0 1 8.2861 -19.6992)" fill="#000000" font-family="'Helvetica-Bold'" font-size="4">Icon Template</text>
	<text transform="matrix(1 0 0 1 -178.5 10.5)" fill="#000000" font-family="'Helvetica-Bold'" font-size="6.1578">Reminders</text>
	<line fill="#000000" stroke="#FFFFFF" stroke-miterlimit="10" x1="8" y1="-14.5" x2="18" y2="-14.5"/>
	<line fill="#000000" stroke="#FFFFFF" stroke-miterlimit="10" x1="-179" y1="16.5" x2="-162" y2="16.5"/>
	<g>
		<g>
			<g>
				<rect x="-170.802" y="31.318" fill="#000000" width="8.721" height="8.642"/>
				<path fill="#000000" d="M-164.455,42.312h4.747v-4.703h-4.747V42.312z M-159.266,42.749h-5.63V37.17h5.63V42.749      L-159.266,42.749z M-166.221,44.062h8.279v-8.203h-8.279V44.062L-166.221,44.062z M-157.5,44.5h-9.163v-9.079h9.163V44.5      L-157.5,44.5z"/>
				<polygon fill="#000000" points="-166.149,44.133 -166.292,43.991 -158.013,35.787 -157.871,35.929     "/>
			</g>
		</g>
	</g>
	<rect x="-179" y="58" fill="none" width="35" height="32.5"/>
	<text transform="matrix(1 0 0 1 -179 60.1582)" fill="#000000" font-family="'Helvetica-Bold'" font-size="3">Strokes</text>
	<text transform="matrix(1 0 0 1 -179 65.1582)" fill="#000000" font-family="'Helvetica'" font-size="2.4">Try to keep strokes at 4px</text>
	<text transform="matrix(1 0 0 1 -179 70.1582)" fill="#000000" font-family="'Helvetica'" font-size="2.4">Minimum stroke weight is 2px</text>
	<text transform="matrix(1 0 0 1 -179 74.6582)" fill="#000000" font-family="'Helvetica'" font-size="2.4">For thicker strokes use even </text>
	<text transform="matrix(1 0 0 1 -179 77.6582)" fill="#000000" font-family="'Helvetica'" font-size="2.4">numbers: 6px, 8px etc.</text>
	<text transform="matrix(1 0 0 1 -179 82.1582)" fill="#000000" font-family="'Helvetica-Bold'" font-size="2.4">Remember to expand strokes </text>
	<text transform="matrix(1 0 0 1 -179 85.1582)" fill="#000000" font-family="'Helvetica-Bold'" font-size="2.4">before saving as an SVG </text>
	<rect x="-136.5" y="58" fill="none" width="35" height="32.5"/>
	<text transform="matrix(1 0 0 1 -136.5 60.1582)" fill="#000000" font-family="'Helvetica-Bold'" font-size="3">Size</text>
	<text transform="matrix(1 0 0 1 -136.5 65.1582)" fill="#000000" font-family="'Helvetica'" font-size="2.4">Cannot be wider or taller than </text>
	<text transform="matrix(1 0 0 1 -136.5 68.6582)" fill="#000000" font-family="'Helvetica'" font-size="2.4">100px (artboard size)</text>
	<text transform="matrix(1 0 0 1 -136.5 73.6582)" fill="#000000" font-family="'Helvetica'" font-size="2.4">Scale your icon to fill as much of </text>
	<text transform="matrix(1 0 0 1 -136.5 76.6582)" fill="#000000" font-family="'Helvetica'" font-size="2.4">the artboard as possible</text>
	<rect x="-94" y="58" fill="none" width="35" height="32.5"/>
	<text transform="matrix(1 0 0 1 -94 60.1582)" fill="#000000" font-family="'Helvetica-Bold'" font-size="3">Ungroup</text>
	<text transform="matrix(1 0 0 1 -94 65.1582)" fill="#000000" font-family="'Helvetica'" font-size="2.4">If your design has more than one </text>
	<text transform="matrix(1 0 0 1 -94 68.1582)" fill="#000000" font-family="'Helvetica'" font-size="2.4">shape, make sure to ungroup</text>
	<rect x="-50" y="58" fill="none" width="35" height="32.5"/>
	<text transform="matrix(1 0 0 1 -50 60.1582)" fill="#000000" font-family="'Helvetica-Bold'" font-size="3">Save as</text>
	<text transform="matrix(1 0 0 1 -50 65.1582)" fill="#000000" font-family="'Helvetica'" font-size="2.4">Save as .SVG and make sure </text>
	<text transform="matrix(1 0 0 1 -50 68.1582)" fill="#000000" font-family="'Helvetica'" font-size="2.4">&#8220;Use Artboards&#8221; is checked</text>
	<text transform="matrix(1.0074 0 0 1 -125.542 30.5947)" fill="#000000" font-family="'Helvetica'" font-size="2.5731">100px</text>
	<text transform="matrix(1.0074 0 0 1 -41 39)" fill="#000000" font-family="'Helvetica-Bold'" font-size="5.1462">.SVG</text>
	<rect x="-126.514" y="34.815" fill="#000000" width="10.261" height="10.185"/>
	<rect x="-126.477" y="31.766" fill="#000000" width="0.522" height="2.337"/>
	<rect x="-116.812" y="31.766" fill="#000000" width="0.523" height="2.337"/>
	<rect x="-127" y="32.337" fill="#000000" width="11.233" height="0.572"/>
	<g>
		<rect x="-83.805" y="33.844" fill="#000000" width="10.305" height="10.156"/>
		<rect x="-76.809" y="28.707" fill="#000000" width="3.308" height="3.261"/>
	</g>
	<rect x="-178.5" y="22.5" fill="#000000" stroke="#FFFFFF" stroke-miterlimit="10" width="30" height="30"/>
	<rect x="-136.5" y="22.5" fill="#000000" stroke="#FFFFFF" stroke-miterlimit="10" width="30" height="30"/>
	<rect x="-93.5" y="22.5" fill="#000000" stroke="#FFFFFF" stroke-miterlimit="10" width="30" height="30"/>
	<rect x="-49.5" y="22.5" fill="#000000" stroke="#FFFFFF" stroke-miterlimit="10" width="30" height="30"/>
</g>
<path fill="#000000" d="M85.838,0.403H19.095c-3.071,0-5.553,2.488-5.553,5.557v86.784c0,3.062,2.482,5.551,5.553,5.551h66.743  c3.067,0,5.557-2.488,5.557-5.551V5.96C91.395,2.892,88.905,0.403,85.838,0.403z M52.468,93.83c-1.596,0-2.89-1.296-2.89-2.891  s1.294-2.892,2.89-2.892c1.598,0,2.888,1.297,2.888,2.892S54.065,93.83,52.468,93.83z M81.477,83.717H23.454V11.678h58.023V83.717z"/>
<path fill="#000000" d="M31.694,22.743h41.542c0.91,0,1.646-0.735,1.646-1.645c0-0.902-0.736-1.641-1.646-1.641H31.694  c-0.905,0-1.637,0.738-1.637,1.641C30.057,22.008,30.789,22.743,31.694,22.743z"/>
<path fill="#000000" d="M31.694,33.614h41.542c0.91,0,1.646-0.737,1.646-1.646c0-0.906-0.736-1.641-1.646-1.641H31.694  c-0.905,0-1.637,0.734-1.637,1.641C30.057,32.877,30.789,33.614,31.694,33.614z"/>
<path fill="#000000" d="M31.697,44.479h19.324c0.902,0,1.635-0.738,1.635-1.638c0-0.906-0.732-1.644-1.635-1.644H31.697  c-0.908,0-1.644,0.737-1.644,1.644C30.054,43.74,30.789,44.479,31.697,44.479z"/>
</svg>